# xmcd
#
# Track frame offsets: 
#        150
#        22492
#        40440
#        55830
#        70872
#        86320
#        101105
#        123605
#        138635
#        160342
#        178890
#
# Disc length: 2692 seconds
#
# Revision: 1
# Processed by: cddbd v1.5.2PL0 Copyright (c) Steve Scherf et al.
# Submitted via: ExactAudioCopy v0.90b4
#
DISCID=a50a820b
DTITLE=The Paperboys - Live at Stockfisch Studio
DYEAR=2008
DGENRE=Country
TTITLE0=Waiting
TTITLE1=Mary
TTITLE2=El Baile Del Puma
TTITLE3=Comfort and Kind
TTITLE4=For Roberta
TTITLE5=Worms - Door of Steel
TTITLE6=Stars
TTITLE7=Dilapidated Beauty
TTITLE8=Country Life
TTITLE9=La Primavera
TTITLE10=Good Thang
EXTD=
EXTT0=
EXTT1=
EXTT2=
EXTT3=
EXTT4=
EXTT5=
EXTT6=
EXTT7=
EXTT8=
EXTT9=
EXTT10=
PLAYORDER=
